<svg width="76" height="108" viewBox="0 0 76 108" fill="none" xmlns="http://www.w3.org/2000/svg">
<path d="M73.4059 55.8465C73.7959 64.6065 73.7759 73.3664 73.6959 82.1364C73.7845 83.5185 73.5871 84.9041 73.1159 86.2065C72.7173 87.1786 72.0297 88.0049 71.1462 88.5736C70.2627 89.1424 69.2259 89.426 68.1759 89.3864C67.1822 89.3977 66.2092 89.1024 65.3895 88.5404C64.5699 87.9785 63.9435 87.1775 63.5959 86.2465C63.0789 84.9566 62.8273 83.5758 62.8559 82.1864C62.8559 78.8464 62.8059 75.4964 62.7659 72.1864C62.8177 71.0347 62.662 69.883 62.3059 68.7864C62.0067 67.8412 61.4082 67.0189 60.6007 66.4436C59.7932 65.8684 58.8205 65.5714 57.8294 65.5973C56.8382 65.6233 55.8824 65.9708 55.1061 66.5876C54.3299 67.2043 53.7752 68.0568 53.5259 69.0164C53.1829 70.3578 53.048 71.744 53.1259 73.1264C53.1259 75.8864 53.2159 78.6664 53.0359 81.4264C53.0035 82.6553 52.5196 83.8291 51.6766 84.7238C50.8336 85.6184 49.6906 86.1711 48.4659 86.2764C46.0459 86.5764 43.9059 85.0464 42.9659 82.4364C42.5956 80.9841 42.4672 79.4806 42.5859 77.9865C42.4959 75.0865 41.7459 74.1064 39.2059 73.6264C36.3859 73.0864 34.2059 74.1865 33.2759 76.5765C32.7946 78.1212 32.6081 79.7428 32.7259 81.3565C32.7259 87.0065 32.7259 92.6564 32.7259 98.3064C32.7731 99.1111 32.7396 99.9185 32.6259 100.716C32.3433 101.968 31.634 103.083 30.6196 103.87C29.6052 104.656 28.3488 105.065 27.0659 105.026C25.8425 104.933 24.6935 104.403 23.8287 103.533C22.964 102.663 22.4412 101.51 22.3559 100.286C22.1659 97.4164 22.2659 94.5264 22.2559 91.6464C22.2559 84.4964 22.1959 77.3465 22.1359 70.1964C22.1462 69.1601 22.0558 68.1253 21.8659 67.1065C21.2659 64.2465 19.7459 63.1065 17.0259 63.2365C16.4433 63.2158 15.8626 63.3146 15.3196 63.5269C14.7767 63.7392 14.2829 64.0604 13.8688 64.4707C13.4547 64.8811 13.129 65.3719 12.9118 65.9129C12.6946 66.4539 12.5905 67.0337 12.6059 67.6165C12.4459 70.9565 12.6059 74.3065 12.5459 77.6165C12.5932 78.6526 12.5396 79.6908 12.3859 80.7165C12.1189 81.9106 11.4578 82.98 10.5091 83.7527C9.56041 84.5255 8.37931 84.9566 7.15589 84.9765C5.92686 84.9648 4.74357 84.5088 3.82453 83.6927C2.9055 82.8766 2.31279 81.7554 2.15589 80.5364C2.01891 79.3919 1.97209 78.2384 2.01588 77.0865C1.94588 60.8265 2.5959 44.5765 2.2559 28.3265C2.1027 26.0047 2.62328 23.6882 3.75507 21.6552C4.88687 19.6222 6.58173 17.9594 8.6359 16.8665C16.0359 12.5665 23.4859 8.34647 30.8459 3.96647C35.2859 1.32647 39.5359 1.32645 43.9059 4.07645C51.0559 8.59645 58.6559 12.3264 66.0959 16.3164C71.5959 19.2664 73.8759 23.6364 73.6459 29.5664C73.3859 38.3164 73.0559 47.0765 73.4059 55.8465ZM37.7159 13.6964C36.1207 13.9217 34.5928 14.4879 33.2359 15.3565C28.9259 17.8465 24.6659 20.4165 20.3359 22.8365C19.186 23.391 18.2216 24.2671 17.5595 25.3587C16.8975 26.4503 16.5662 27.7105 16.6059 28.9865C16.6059 35.2065 16.6059 41.4264 16.6059 47.6464C16.5887 48.8074 16.8876 49.9513 17.4707 50.9554C18.0537 51.9595 18.899 52.786 19.9159 53.3465C24.7159 56.3465 29.6259 59.1865 34.6159 61.8665C35.5104 62.4307 36.5419 62.7399 37.5992 62.761C38.6565 62.7822 39.6996 62.5144 40.6159 61.9865C45.4359 59.2365 50.2659 56.5064 55.0359 53.6864C56.3104 52.9741 57.3604 51.9196 58.0672 50.642C58.774 49.3644 59.1096 47.9147 59.0359 46.4565C59.0359 40.9265 59.0359 35.3965 59.0359 29.8665C59.0986 28.4143 58.7462 26.9742 58.0201 25.715C57.294 24.4558 56.2242 23.4296 54.9359 22.7564C50.3359 20.0964 45.7359 17.4264 41.1159 14.7564C40.073 14.1603 38.9128 13.7987 37.7159 13.6964Z" fill="#E67220" stroke="#FFFAB5" stroke-width="4" stroke-miterlimit="10"/>
</svg>
