<svg width="107" height="75" viewBox="0 0 107 75" fill="none" xmlns="http://www.w3.org/2000/svg">
<path d="M52.212 74.3559C43.452 74.7559 34.682 74.7359 25.922 74.6459C24.5375 74.7331 23.1496 74.5392 21.842 74.0759C20.8734 73.6733 20.0508 72.9845 19.4843 72.1017C18.9178 71.2189 18.6344 70.1841 18.672 69.1359C18.6563 68.1413 18.9488 67.1663 19.5091 66.3446C20.0695 65.5228 20.8704 64.8945 21.802 64.5459C23.0939 64.037 24.4737 63.7889 25.862 63.8159C29.212 63.8159 32.552 63.7659 35.862 63.7259C37.0176 63.7744 38.1726 63.6152 39.272 63.2559C40.2131 62.9538 41.0309 62.3549 41.6028 61.5487C42.1747 60.7426 42.4697 59.7727 42.4438 58.7847C42.4179 57.7966 42.0724 56.8436 41.459 56.0686C40.8457 55.2935 39.9976 54.7382 39.042 54.4859C37.702 54.1344 36.3145 53.9994 34.9319 54.0859C32.1619 54.0859 29.3919 54.1659 26.6319 53.9959C25.4131 53.9571 24.2505 53.4742 23.3628 52.6381C22.4751 51.8019 21.9235 50.6702 21.8119 49.4559C21.5019 47.0459 23.032 44.9059 25.642 43.9559C27.0944 43.5859 28.5978 43.4576 30.092 43.5759C32.992 43.4959 33.982 42.7359 34.462 40.2059C34.992 37.3859 33.892 35.2059 31.462 34.2659C29.9136 33.7855 28.289 33.5989 26.672 33.7159C21.022 33.7159 15.372 33.7159 9.72197 33.7159C8.91737 33.768 8.1095 33.7344 7.31197 33.6159C6.0626 33.3318 4.9503 32.6236 4.16445 31.6116C3.3786 30.5997 2.96779 29.3467 3.00197 28.0659C3.09679 26.8422 3.62716 25.6931 4.49685 24.827C5.36654 23.961 6.5179 23.4355 7.74196 23.3459C10.612 23.1559 13.502 23.2659 16.382 23.2459C23.532 23.2459 30.682 23.1859 37.832 23.1259C38.8685 23.1416 39.9039 23.0512 40.922 22.8559C43.792 22.2559 44.922 20.7359 44.802 18.0259C44.682 15.3159 43.162 13.7359 40.412 13.6059C37.072 13.4359 33.722 13.6059 30.412 13.5359C29.3762 13.5818 28.3384 13.5315 27.3119 13.3859C26.1197 13.1169 25.0525 12.4551 24.2817 11.5065C23.5109 10.558 23.0813 9.37794 23.0619 8.15589C23.0715 6.92626 23.5268 5.74181 24.3433 4.82233C25.1598 3.90286 26.2821 3.31077 27.5019 3.15589C28.6465 3.01891 29.8001 2.97209 30.952 3.01588C47.202 2.94588 63.452 3.59588 79.712 3.26588C82.0418 3.0945 84.371 3.60693 86.4138 4.74024C88.4566 5.87356 90.1242 7.57847 91.212 9.64588C95.522 17.0459 99.742 24.4959 104.112 31.8559C106.752 36.2959 106.762 40.5559 104.002 44.9258C99.4819 52.0658 95.762 59.6659 91.772 67.1059C88.772 72.6059 84.452 74.8859 78.522 74.6659C69.732 74.3359 60.972 74.0059 52.212 74.3559ZM94.362 38.6659C94.125 37.0721 93.5561 35.5458 92.6919 34.1859C90.2119 29.8859 87.642 25.6259 85.212 21.2859C84.6584 20.1352 83.7825 19.17 82.6907 18.5078C81.5989 17.8456 80.3382 17.5149 79.0619 17.5559H60.402C59.2402 17.5407 58.0961 17.8416 57.0922 18.4264C56.0882 19.0112 55.262 19.8578 54.702 20.8759C51.702 25.6659 48.8719 30.5859 46.1819 35.5759C45.6188 36.4707 45.3101 37.5021 45.289 38.5592C45.2678 39.6163 45.535 40.6592 46.0619 41.5759C48.8119 46.3959 51.5419 51.2259 54.3719 56.0059C55.0844 57.278 56.1375 58.3264 57.413 59.033C58.6884 59.7396 60.1356 60.0765 61.592 60.0059C67.1186 60.0059 72.6486 60.0059 78.1819 60.0059C79.6331 60.0695 81.0724 59.7186 82.3315 58.9943C83.5906 58.2701 84.6174 57.2023 85.292 55.9159C87.952 51.3059 90.632 46.7159 93.292 42.0859C93.8896 41.0357 94.2545 39.8694 94.362 38.6659Z" fill="#d9b031"/>
<path d="M49.212 71.3559C40.452 71.7559 31.682 71.7359 22.922 71.6459C21.5375 71.7331 20.1496 71.5392 18.842 71.0759C17.8734 70.6733 17.0508 69.9845 16.4843 69.1017C15.9178 68.2189 15.6344 67.1841 15.672 66.1359C15.6563 65.1413 15.9488 64.1663 16.5091 63.3446C17.0695 62.5228 17.8704 61.8945 18.802 61.5459C20.0939 61.037 21.4737 60.7889 22.862 60.8159C26.212 60.8159 29.552 60.7659 32.862 60.7259C34.0176 60.7744 35.1726 60.6152 36.272 60.2559C37.2131 59.9538 38.0309 59.3549 38.6028 58.5487C39.1747 57.7426 39.4697 56.7727 39.4438 55.7847C39.4179 54.7966 39.0724 53.8436 38.459 53.0686C37.8457 52.2935 36.9976 51.7382 36.042 51.4859C34.702 51.1344 33.3145 50.9994 31.9319 51.0859C29.1619 51.0859 26.3919 51.1659 23.6319 50.9959C22.4131 50.9571 21.2504 50.4742 20.3628 49.6381C19.4751 48.8019 18.9235 47.6702 18.812 46.4559C18.502 44.0459 20.032 41.9059 22.642 40.9559C24.0944 40.5859 25.5978 40.4576 27.092 40.5759C29.992 40.4959 30.982 39.7359 31.462 37.2059C31.992 34.3859 30.892 32.2059 28.462 31.2659C26.9136 30.7855 25.289 30.5989 23.672 30.7159C18.022 30.7159 12.372 30.7159 6.72197 30.7159C5.91737 30.768 5.1095 30.7344 4.31197 30.6159C3.0626 30.3318 1.9503 29.6236 1.16445 28.6116C0.378599 27.5997 -0.0322128 26.3467 0.00197375 25.0659C0.0967873 23.8422 0.627155 22.6931 1.49685 21.827C2.36654 20.961 3.5179 20.4355 4.74196 20.3459C7.61196 20.1559 10.502 20.2659 13.382 20.2459C20.532 20.2459 27.682 20.1859 34.832 20.1259C35.8685 20.1416 36.9039 20.0512 37.922 19.8559C40.792 19.2559 41.922 17.7359 41.802 15.0259C41.682 12.3159 40.162 10.7359 37.412 10.6059C34.072 10.4359 30.722 10.6059 27.412 10.5359C26.3762 10.5818 25.3384 10.5315 24.3119 10.3859C23.1197 10.1169 22.0525 9.45505 21.2817 8.50654C20.5109 7.55803 20.0813 6.37794 20.062 5.15589C20.0715 3.92626 20.5268 2.74181 21.3433 1.82233C22.1598 0.902859 23.2821 0.310774 24.5019 0.155892C25.6465 0.0189134 26.8001 -0.0279121 27.952 0.0158774C44.202 -0.0541226 60.452 0.595877 76.712 0.265877C79.0418 0.094503 81.371 0.606929 83.4138 1.74024C85.4566 2.87356 87.1242 4.57847 88.212 6.64588C92.522 14.0459 96.742 21.4959 101.112 28.8559C103.752 33.2959 103.762 37.5559 101.002 41.9258C96.4819 49.0658 92.762 56.6659 88.772 64.1059C85.772 69.6059 81.452 71.8859 75.522 71.6659C66.732 71.3359 57.972 71.0059 49.212 71.3559ZM91.362 35.6659C91.125 34.0721 90.5561 32.5458 89.6919 31.1859C87.2119 26.8859 84.642 22.6259 82.212 18.2859C81.6584 17.1352 80.7825 16.17 79.6907 15.5078C78.5989 14.8456 77.3382 14.5149 76.0619 14.5559H57.402C56.2402 14.5407 55.0961 14.8416 54.0922 15.4264C53.0882 16.0112 52.262 16.8578 51.702 17.8759C48.702 22.6659 45.8719 27.5859 43.1819 32.5759C42.6188 33.4707 42.3101 34.5021 42.289 35.5592C42.2678 36.6163 42.535 37.6592 43.0619 38.5759C45.8119 43.3959 48.5419 48.2259 51.3719 53.0059C52.0844 54.278 53.1375 55.3264 54.413 56.033C55.6884 56.7396 57.1356 57.0765 58.592 57.0059C64.1186 57.0059 69.6486 57.0059 75.1819 57.0059C76.6331 57.0695 78.0724 56.7186 79.3315 55.9943C80.5906 55.2701 81.6174 54.2023 82.292 52.9159C84.952 48.3059 87.632 43.7159 90.292 39.0859C90.8896 38.0357 91.2545 36.8694 91.362 35.6659Z" fill="#070606"/>
</svg>
