<svg width="79" height="111" viewBox="0 0 79 111" fill="none" xmlns="http://www.w3.org/2000/svg">
<path d="M76.4059 58.8465C76.7959 67.6065 76.7759 76.3664 76.6959 85.1364C76.7845 86.5185 76.5871 87.9041 76.1159 89.2065C75.7173 90.1786 75.0297 91.0049 74.1462 91.5736C73.2627 92.1424 72.2259 92.426 71.1759 92.3864C70.1822 92.3977 69.2092 92.1024 68.3895 91.5404C67.5699 90.9785 66.9435 90.1775 66.5959 89.2465C66.0789 87.9566 65.8273 86.5758 65.8559 85.1864C65.8559 81.8464 65.8059 78.4964 65.7659 75.1864C65.8177 74.0347 65.662 72.883 65.3059 71.7864C65.0067 70.8412 64.4082 70.0189 63.6007 69.4436C62.7932 68.8684 61.8205 68.5714 60.8294 68.5973C59.8382 68.6233 58.8824 68.9708 58.1061 69.5876C57.3299 70.2043 56.7752 71.0568 56.5259 72.0164C56.1829 73.3578 56.048 74.744 56.1259 76.1264C56.1259 78.8864 56.2159 81.6664 56.0359 84.4264C56.0035 85.6553 55.5196 86.8291 54.6766 87.7238C53.8336 88.6184 52.6906 89.1711 51.4659 89.2764C49.0459 89.5764 46.9059 88.0464 45.9659 85.4364C45.5956 83.9841 45.4672 82.4806 45.5859 80.9865C45.4959 78.0865 44.7459 77.1064 42.2059 76.6264C39.3859 76.0864 37.2059 77.1865 36.2759 79.5765C35.7946 81.1212 35.6081 82.7428 35.7259 84.3565C35.7259 90.0065 35.7259 95.6564 35.7259 101.306C35.7731 102.111 35.7396 102.918 35.6259 103.716C35.3433 104.968 34.634 106.083 33.6196 106.87C32.6052 107.656 31.3488 108.065 30.0659 108.026C28.8425 107.933 27.6935 107.403 26.8287 106.533C25.964 105.663 25.4412 104.51 25.3559 103.286C25.1659 100.416 25.2659 97.5264 25.2559 94.6464C25.2559 87.4964 25.1959 80.3465 25.1359 73.1964C25.1462 72.1601 25.0558 71.1253 24.8659 70.1065C24.2659 67.2465 22.7459 66.1065 20.0259 66.2365C19.4433 66.2158 18.8626 66.3146 18.3196 66.5269C17.7767 66.7392 17.2829 67.0604 16.8688 67.4707C16.4547 67.8811 16.129 68.3719 15.9118 68.9129C15.6946 69.4539 15.5905 70.0337 15.6059 70.6165C15.4459 73.9565 15.6059 77.3065 15.5459 80.6165C15.5932 81.6526 15.5396 82.6908 15.3859 83.7165C15.1189 84.9106 14.4578 85.98 13.5091 86.7527C12.5604 87.5255 11.3793 87.9566 10.1559 87.9765C8.92686 87.9648 7.74357 87.5088 6.82453 86.6927C5.9055 85.8766 5.31279 84.7554 5.15589 83.5364C5.01891 82.3919 4.97209 81.2384 5.01588 80.0865C4.94588 63.8265 5.5959 47.5765 5.2559 31.3265C5.1027 29.0047 5.62328 26.6882 6.75507 24.6552C7.88687 22.6222 9.5817 20.9594 11.6359 19.8665C19.0359 15.5665 26.4859 11.3465 33.8459 6.96647C38.2859 4.32647 42.5359 4.32645 46.9059 7.07645C54.0559 11.5965 61.6559 15.3264 69.0959 19.3164C74.5959 22.2664 76.8759 26.6364 76.6459 32.5664C76.3859 41.3164 76.0559 50.0765 76.4059 58.8465ZM40.7159 16.6964C39.1207 16.9217 37.5928 17.4879 36.2359 18.3565C31.9259 20.8465 27.6659 23.4165 23.3359 25.8365C22.186 26.391 21.2216 27.2671 20.5595 28.3587C19.8975 29.4503 19.5662 30.7105 19.6059 31.9865C19.6059 38.2065 19.6059 44.4264 19.6059 50.6464C19.5887 51.8074 19.8876 52.9513 20.4707 53.9554C21.0537 54.9595 21.899 55.786 22.9159 56.3465C27.7159 59.3465 32.6259 62.1865 37.6159 64.8665C38.5104 65.4307 39.5419 65.7399 40.5992 65.761C41.6565 65.7822 42.6996 65.5144 43.6159 64.9865C48.4359 62.2365 53.2659 59.5064 58.0359 56.6864C59.3104 55.9741 60.3604 54.9196 61.0672 53.642C61.774 52.3644 62.1096 50.9147 62.0359 49.4565C62.0359 43.9265 62.0359 38.3965 62.0359 32.8665C62.0986 31.4143 61.7462 29.9742 61.0201 28.715C60.294 27.4558 59.2242 26.4296 57.9359 25.7564C53.3359 23.0964 48.7359 20.4264 44.1159 17.7564C43.073 17.1603 41.9128 16.7987 40.7159 16.6964Z" fill="black" stroke="#d9b031" stroke-width="4" stroke-miterlimit="10"/>
<path d="M73.4059 55.8465C73.7959 64.6065 73.7759 73.3664 73.6959 82.1364C73.7845 83.5185 73.5871 84.9041 73.1159 86.2065C72.7173 87.1786 72.0297 88.0049 71.1462 88.5736C70.2627 89.1424 69.2259 89.426 68.1759 89.3864C67.1822 89.3977 66.2092 89.1024 65.3895 88.5404C64.5699 87.9785 63.9435 87.1775 63.5959 86.2465C63.0789 84.9566 62.8273 83.5758 62.8559 82.1864C62.8559 78.8464 62.8059 75.4964 62.7659 72.1864C62.8177 71.0347 62.662 69.883 62.3059 68.7864C62.0067 67.8412 61.4082 67.0189 60.6007 66.4436C59.7932 65.8684 58.8205 65.5714 57.8294 65.5973C56.8382 65.6233 55.8824 65.9708 55.1061 66.5876C54.3299 67.2043 53.7752 68.0568 53.5259 69.0164C53.1829 70.3578 53.048 71.744 53.1259 73.1264C53.1259 75.8864 53.2159 78.6664 53.0359 81.4264C53.0035 82.6553 52.5196 83.8291 51.6766 84.7238C50.8336 85.6184 49.6906 86.1711 48.4659 86.2764C46.0459 86.5764 43.9059 85.0464 42.9659 82.4364C42.5956 80.9841 42.4672 79.4806 42.5859 77.9865C42.4959 75.0865 41.7459 74.1064 39.2059 73.6264C36.3859 73.0864 34.2059 74.1865 33.2759 76.5765C32.7946 78.1212 32.6081 79.7428 32.7259 81.3565C32.7259 87.0065 32.7259 92.6564 32.7259 98.3064C32.7731 99.1111 32.7396 99.9185 32.6259 100.716C32.3433 101.968 31.634 103.083 30.6196 103.87C29.6052 104.656 28.3488 105.065 27.0659 105.026C25.8425 104.933 24.6935 104.403 23.8287 103.533C22.964 102.663 22.4412 101.51 22.3559 100.286C22.1659 97.4164 22.2659 94.5264 22.2559 91.6464C22.2559 84.4964 22.1959 77.3465 22.1359 70.1964C22.1462 69.1601 22.0558 68.1253 21.8659 67.1065C21.2659 64.2465 19.7459 63.1065 17.0259 63.2365C16.4433 63.2158 15.8626 63.3146 15.3196 63.5269C14.7767 63.7392 14.2829 64.0604 13.8688 64.4707C13.4547 64.8811 13.129 65.3719 12.9118 65.9129C12.6946 66.4539 12.5905 67.0337 12.6059 67.6165C12.4459 70.9565 12.6059 74.3065 12.5459 77.6165C12.5932 78.6526 12.5396 79.6908 12.3859 80.7165C12.1189 81.9106 11.4578 82.98 10.5091 83.7527C9.56041 84.5255 8.37931 84.9566 7.15589 84.9765C5.92686 84.9648 4.74357 84.5088 3.82453 83.6927C2.9055 82.8766 2.31279 81.7554 2.15589 80.5364C2.01891 79.3919 1.97209 78.2384 2.01588 77.0865C1.94588 60.8265 2.5959 44.5765 2.2559 28.3265C2.1027 26.0047 2.62328 23.6882 3.75507 21.6552C4.88687 19.6222 6.58173 17.9594 8.6359 16.8665C16.0359 12.5665 23.4859 8.34647 30.8459 3.96647C35.2859 1.32647 39.5359 1.32645 43.9059 4.07645C51.0559 8.59645 58.6559 12.3264 66.0959 16.3164C71.5959 19.2664 73.8759 23.6364 73.6459 29.5664C73.3859 38.3164 73.0559 47.0765 73.4059 55.8465ZM37.7159 13.6964C36.1207 13.9217 34.5928 14.4879 33.2359 15.3565C28.9259 17.8465 24.6659 20.4165 20.3359 22.8365C19.186 23.391 18.2216 24.2671 17.5595 25.3587C16.8975 26.4503 16.5662 27.7105 16.6059 28.9865C16.6059 35.2065 16.6059 41.4264 16.6059 47.6464C16.5887 48.8074 16.8876 49.9513 17.4707 50.9554C18.0537 51.9595 18.899 52.786 19.9159 53.3465C24.7159 56.3465 29.6259 59.1865 34.6159 61.8665C35.5104 62.4307 36.5419 62.7399 37.5992 62.761C38.6565 62.7822 39.6996 62.5144 40.6159 61.9865C45.4359 59.2365 50.2659 56.5064 55.0359 53.6864C56.3104 52.9741 57.3604 51.9196 58.0672 50.642C58.774 49.3644 59.1096 47.9147 59.0359 46.4565C59.0359 40.9265 59.0359 35.3965 59.0359 29.8665C59.0986 28.4143 58.7462 26.9742 58.0201 25.715C57.294 24.4558 56.2242 23.4296 54.9359 22.7564C50.3359 20.0964 45.7359 17.4264 41.1159 14.7564C40.073 14.1603 38.9128 13.7987 37.7159 13.6964Z" fill="#E67220" stroke="#FFFAB5" stroke-width="4" stroke-miterlimit="10"/>
</svg>
